<svg width="24" height="21" viewBox="0 0 24 21" fill="none" xmlns="http://www.w3.org/2000/svg">
<g opacity="0.65">
<path d="M21.9371 9.15873H5.01149C5.00854 9.15873 5.00559 9.15263 5.00854 9.15263L11.3929 2.81156C11.9092 2.2994 11.9269 1.44884 11.4283 0.915338C10.9326 0.381835 10.1095 0.363543 9.59323 0.878755L0.901793 9.50932C0.648072 9.76235 0.503509 10.1129 0.503509 10.4757C0.503509 10.8416 0.648072 11.1891 0.901793 11.4421L9.64043 20.1215C9.8912 20.3714 10.2157 20.4964 10.5403 20.4964C10.8825 20.4964 11.2218 20.3593 11.4755 20.0849C11.9711 19.5514 11.9564 18.7008 11.4401 18.1887L5.05574 11.8476C5.05279 11.8445 5.05574 11.8415 5.05869 11.8415H21.9666C22.6569 11.8415 23.2204 11.2836 23.2617 10.5824C23.306 9.80503 22.6894 9.15873 21.9371 9.15873Z" fill="black" stroke="black"/>
</g>
</svg>
