<svg width="24" height="19" viewBox="0 0 24 19" fill="none" xmlns="http://www.w3.org/2000/svg">
<path d="M12.6663 0H0.66665C0.489843 0 0.320278 0.0702361 0.195257 0.195257C0.0702361 0.320278 0 0.489843 0 0.66665L0 4.66655C0 4.84335 0.0702361 5.01292 0.195257 5.13794C0.320278 5.26296 0.489843 5.3332 0.66665 5.3332H1.99995C2.17676 5.3332 2.34632 5.26296 2.47134 5.13794C2.59636 5.01292 2.6666 4.84335 2.6666 4.66655V3.33325H4.99987V15.9996H3.33325C3.15644 15.9996 2.98688 16.0698 2.86186 16.1948C2.73683 16.3199 2.6666 16.4894 2.6666 16.6662V17.9995C2.6666 18.1763 2.73683 18.3459 2.86186 18.4709C2.98688 18.596 3.15644 18.6662 3.33325 18.6662H9.99974C10.1766 18.6662 10.3461 18.596 10.4711 18.4709C10.5962 18.3459 10.6664 18.1763 10.6664 17.9995V16.6662C10.6664 16.4894 10.5962 16.3199 10.4711 16.1948C10.3461 16.0698 10.1766 15.9996 9.99974 15.9996H8.33312V3.33325H10.6664V4.66655C10.6664 4.84335 10.7366 5.01292 10.8617 5.13794C10.9867 5.26296 11.1562 5.3332 11.333 5.3332H12.6663C12.8431 5.3332 13.0127 5.26296 13.1377 5.13794C13.2628 5.01292 13.333 4.84335 13.333 4.66655V0.66665C13.333 0.489843 13.2628 0.320278 13.1377 0.195257C13.0127 0.0702361 12.8431 0 12.6663 0ZM23.3327 13.9996H21.3328V4.66655H23.3327C23.929 4.66655 24.2215 3.94532 23.804 3.52866L20.4707 0.195412C20.3457 0.0704851 20.1762 0.000308983 19.9995 0.000308983C19.8228 0.000308983 19.6533 0.0704851 19.5283 0.195412L16.195 3.52866C15.8063 3.91657 16.0146 4.66655 16.6662 4.66655H18.6662V13.9996H16.6662C16.07 13.9996 15.7779 14.7209 16.195 15.1375L19.5283 18.4708C19.6533 18.5957 19.8228 18.6659 19.9995 18.6659C20.1762 18.6659 20.3457 18.5957 20.4707 18.4708L23.804 15.1375C24.1927 14.7496 23.9844 13.9996 23.3327 13.9996Z" fill="#F9F5F5"/>
</svg>
