<svg width="24" height="24" viewBox="0 0 24 24" fill="none" xmlns="http://www.w3.org/2000/svg">
<path d="M9.57615 0.236022C4.9167 1.14541 1.16195 4.89079 0.243182 9.53617C-1.49122 18.3019 6.41672 24.8364 12.3746 23.913C14.3059 23.613 15.2528 21.3536 14.3668 19.6145C13.284 17.4863 14.8309 15.0019 17.2216 15.0019H20.9576C22.6357 15.0019 23.9951 13.6144 23.9998 11.9409C23.9764 4.55328 17.2544 -1.25932 9.57615 0.236022ZM4.4995 15.0019C3.6698 15.0019 2.99948 14.3316 2.99948 13.5019C2.99948 12.6722 3.6698 12.0018 4.4995 12.0018C5.3292 12.0018 5.99953 12.6722 5.99953 13.5019C5.99953 14.3316 5.3292 15.0019 4.4995 15.0019ZM5.99953 9.00179C5.16982 9.00179 4.4995 8.33147 4.4995 7.50177C4.4995 6.67206 5.16982 6.00174 5.99953 6.00174C6.82923 6.00174 7.49955 6.67206 7.49955 7.50177C7.49955 8.33147 6.82923 9.00179 5.99953 9.00179ZM11.9996 6.00174C11.1699 6.00174 10.4996 5.33142 10.4996 4.50172C10.4996 3.67202 11.1699 3.00169 11.9996 3.00169C12.8293 3.00169 13.4996 3.67202 13.4996 4.50172C13.4996 5.33142 12.8293 6.00174 11.9996 6.00174ZM17.9997 9.00179C17.17 9.00179 16.4997 8.33147 16.4997 7.50177C16.4997 6.67206 17.17 6.00174 17.9997 6.00174C18.8294 6.00174 19.4997 6.67206 19.4997 7.50177C19.4997 8.33147 18.8294 9.00179 17.9997 9.00179Z" fill="#F8FEFF"/>
</svg>
